<svg width="59" height="61" viewBox="0 0 59 61" fill="none" xmlns="http://www.w3.org/2000/svg">
<path d="M55.746 0H3.25696C1.45737 0 0 1.5067 0 3.3672V57.6358C0 59.4933 1.45737 61 3.25696 61H31.5194V37.3777H23.8254V28.1729H31.5135V21.3805C31.5135 13.5024 36.1688 9.211 42.9689 9.211C46.2259 9.211 49.0226 9.4611 49.8398 9.57395V17.809H45.1254C41.426 17.809 40.712 19.6298 40.712 22.2924V28.1729H49.53L48.3795 37.3777H40.7091V61H55.7489C57.5426 61 59 59.4933 59 57.6328V3.3672C59.0029 1.5067 57.5456 0 55.746 0Z" fill="#F25B36"/>
</svg>
