<svg width="60" height="60" viewBox="0 0 60 60" fill="none" xmlns="http://www.w3.org/2000/svg">
<path d="M29.9985 5.406C38.0089 5.406 38.9599 5.436 42.1251 5.583C50.2555 5.952 54.0537 9.81 54.4257 17.88C54.5697 21.042 54.5967 21.99 54.5967 30C54.5967 38.016 54.5667 38.964 54.4227 42.126C54.0507 50.187 50.2645 54.051 42.1251 54.423C38.9599 54.567 38.0149 54.597 29.9985 54.597C21.9881 54.597 21.0401 54.567 17.8779 54.423C9.72649 54.051 5.9493 50.175 5.57728 42.123C5.43327 38.961 5.40327 38.013 5.40327 30C5.40327 21.99 5.43327 21.042 5.57728 17.88C5.9493 9.81 9.73849 5.949 17.8779 5.58C21.0401 5.436 21.9881 5.406 29.9985 5.406V5.406ZM29.9985 0C21.8531 0 20.833 0.036 17.6319 0.18C6.73534 0.681 0.678034 6.726 0.180009 17.631C0.0330017 20.832 0 21.852 0 30C0 38.148 0.0330017 39.171 0.180009 42.369C0.678034 53.265 6.72334 59.319 17.6289 59.82C20.833 59.964 21.8531 60 29.9985 60C38.1469 60 39.17 59.964 42.3711 59.82C53.2557 59.319 59.325 53.274 59.82 42.369C59.967 39.171 60 38.148 60 30C60 21.852 59.967 20.832 59.82 17.634C59.331 6.747 53.2797 0.684 42.3741 0.18C39.17 0.03 38.1469 0 29.9985 0ZM29.9985 14.595C25.9126 14.595 21.9941 16.218 19.105 19.107C16.2158 21.996 14.5927 25.9143 14.5927 30C14.5927 34.0857 16.2158 38.004 19.105 40.893C21.9941 43.782 25.9126 45.405 29.9985 45.405C34.0844 45.405 38.0029 43.782 40.892 40.893C43.7812 38.004 45.4043 34.0857 45.4043 30C45.4043 25.9143 43.7812 21.996 40.892 19.107C38.0029 16.218 34.0844 14.595 29.9985 14.595V14.595ZM29.9985 39.999C27.3465 39.999 24.8031 38.9455 22.9278 37.0704C21.0525 35.1952 19.999 32.6519 19.999 30C19.999 27.3481 21.0525 24.8048 22.9278 22.9296C24.8031 21.0545 27.3465 20.001 29.9985 20.001C32.6505 20.001 35.1939 21.0545 37.0692 22.9296C38.9445 24.8048 39.998 27.3481 39.998 30C39.998 32.6519 38.9445 35.1952 37.0692 37.0704C35.1939 38.9455 32.6505 39.999 29.9985 39.999V39.999ZM46.0163 10.389C45.5435 10.3888 45.0753 10.4817 44.6385 10.6625C44.2016 10.8432 43.8046 11.1082 43.4701 11.4424C43.1357 11.7765 42.8704 12.1733 42.6892 12.61C42.5081 13.0467 42.4148 13.5147 42.4146 13.9875C42.4144 14.4603 42.5074 14.9284 42.6881 15.3653C42.8688 15.8021 43.1339 16.1991 43.468 16.5335C43.8022 16.868 44.199 17.1333 44.6357 17.3144C45.0724 17.4955 45.5405 17.5888 46.0133 17.589C46.9681 17.589 47.8838 17.2097 48.559 16.5346C49.2342 15.8595 49.6135 14.9438 49.6135 13.989C49.6135 13.0342 49.2342 12.1185 48.559 11.4434C47.8838 10.7683 46.9681 10.389 46.0133 10.389H46.0163Z" fill="#F25B36"/>
</svg>
