<svg width="59" height="60" viewBox="0 0 59 60" fill="none" xmlns="http://www.w3.org/2000/svg">
<path d="M29.5229 0C13.7457 0 0.951431 13.434 0.951431 30C0.951431 46.569 13.7457 60 29.5229 60C45.3029 60 58.0943 46.569 58.0943 30C58.0943 13.434 45.3029 0 29.5229 0V0ZM40.0971 42.231C35.0914 42.591 23.9457 42.591 18.9486 42.231C13.5286 41.841 12.8971 39.054 12.8571 30C12.8971 20.928 13.5343 18.159 18.9486 17.769C23.9457 17.409 35.0943 17.409 40.0971 17.769C45.52 18.159 46.1486 20.946 46.1914 30C46.1486 39.072 45.5114 41.841 40.0971 42.231V42.231ZM24.7629 24.144L36.4686 29.991L24.7629 35.856V24.144V24.144Z" fill="#F25B36"/>
</svg>
