<svg width="58" height="55" viewBox="0 0 58 55" fill="none" xmlns="http://www.w3.org/2000/svg">
<path d="M57.1457 6.41335C55.0059 7.51993 52.7358 8.24578 50.4114 8.56668C52.8604 6.85874 54.6926 4.16901 55.5657 1.00001C53.2641 2.59356 50.7459 3.71639 48.12 4.32001C47.0235 2.95424 45.6982 1.86599 44.2261 1.12284C42.7541 0.379696 41.1668 -0.00249084 39.5629 1.22157e-05C31.9943 1.22157e-05 26.4343 8.24001 28.1429 16.7933C23.4816 16.5212 18.9215 15.1084 14.7587 12.6465C10.596 10.1846 6.92355 6.72874 3.98 2.50335C2.48213 5.51493 2.02359 9.07901 2.69762 12.4709C3.37165 15.8628 5.12765 18.8279 7.60857 20.7633C5.74675 20.697 3.92556 20.1118 2.29714 19.0567C2.16857 25.3933 6.06 31.3233 11.6971 32.64C9.97061 33.1869 8.15984 33.2667 6.40286 32.8733C7.15114 35.5921 8.60956 37.9698 10.5739 39.6733C12.5382 41.3768 14.91 42.3209 17.3571 42.3733C12.4433 46.8703 6.2007 48.9083 0 48.04C5.3608 52.058 11.5997 54.1907 17.9714 54.1833C39.7371 54.1833 52.0343 32.7367 51.2914 13.5C53.5865 11.5637 55.5679 9.16635 57.1429 6.42001L57.1457 6.41335Z" fill="#F25B36"/>
</svg>
