<svg width="60" height="60" viewBox="0 0 60 60" fill="none" xmlns="http://www.w3.org/2000/svg">
<path d="M30 0C13.434 0 0 13.431 0 30C0 42.711 7.908 53.565 19.068 57.936C18.804 55.563 18.567 51.921 19.173 49.332C19.719 46.992 22.689 34.422 22.689 34.422C22.689 34.422 21.792 32.622 21.792 29.964C21.792 25.794 24.21 22.68 27.222 22.68C29.778 22.68 31.014 24.6 31.014 26.904C31.014 29.478 29.379 33.324 28.53 36.894C27.822 39.879 30.03 42.315 32.97 42.315C38.304 42.315 42.402 36.693 42.402 28.575C42.402 21.396 37.242 16.371 29.871 16.371C21.336 16.371 16.326 22.776 16.326 29.391C16.326 31.968 17.319 34.734 18.561 36.234C18.6673 36.3478 18.7423 36.4872 18.7785 36.6387C18.8148 36.7901 18.8112 36.9484 18.768 37.098L17.934 40.497C17.802 41.046 17.499 41.166 16.929 40.899C13.182 39.156 10.839 33.678 10.839 29.277C10.839 19.815 17.715 11.121 30.663 11.121C41.07 11.121 49.158 18.54 49.158 28.449C49.158 38.79 42.639 47.109 33.588 47.109C30.549 47.109 27.693 45.534 26.715 43.665L24.846 50.799C24.168 53.406 22.341 56.673 21.114 58.662C23.925 59.532 26.907 60 30 60C46.566 60 60 46.569 60 30C60 13.431 46.566 0 30 0Z" fill="#F25B36"/>
</svg>
